<svg class="diagram-root" style="background: #f5f6f6" xmlns="http://www.w3.org/2000/svg" xmlns:xlink="http://www.w3.org/1999/xlink"><style>.diagram-root { font-family: "Helvetica Neue", sans-serif; font-size: 12px; } .t { overflow: visible; } .t-bg { y: 40; fill: #fff;   } .th { fill: #005aa0;   } .tht { fill: #fff; font-size: 14px;  } .tf { fill: #323c46; overflow: visible; } .tf.pk { fill: #005aa0; font-weight: bold; } .tf.fk { font-weight: bold; } .ty { fill: #adb1b5; font-weight: normal; text-anchor: end; } .r { fill: transparent; stroke: #c3c3c3; stroke-width: 1; } .l { stroke: 1; } .i { fill: #c2c7ce; stroke: #c2c7ce; } .i.ix { fill: #afb3b6; stroke: #000; } .fa { fill: transparent; overflow: visible; } .fa .bg.hover { fill: #f7f7f7; } .c { cy: 12; r: 4; stroke: #d2d2dc; fill: #d2d2dc; } .hr { fill: transparent; stroke: #323c46; stroke-opacity: 0.035; stroke-width: 13; } .dc { stroke: #fa5a3c; fill: #fa5a3c; } .x { stroke: white; stroke-width: 1; } .hl .th { fill: #1b9bff; } .hl .tht {  } .fhl .bg { fill: #e7f4ff; } .fhls .bg {  } .r.hl { stroke: #1b9bff; } .dim { opacity: 0.25; }</style><g class="drawing-wrapper" transform="translate(-13, 11) scale(1,1)"><g class="rs"><path d="M 591 246 m -1, 0 a 1,1 0 1,0 2,0 a 1,1 0 1,0 -2,0 M 591 246 m -0.5, 0 a 0.5,0.5 0 1,0 1,0 a 0.5,0.5 0 1,0 -1,0  M591 246 L591 246 579 246 M585 252 L585 252 585 240 M579 246 Q 491.19 246, 403.37 224.5 T 227.74 203 M 215.74 203 m -1, 0 a 1,1 0 1,0 2,0 a 1,1 0 1,0 -2,0 M 215.74 203 m -0.5, 0 a 0.5,0.5 0 1,0 1,0 a 0.5,0.5 0 1,0 -1,0  M215.74 203 L215.74 203 227.74 203 M221.74 209 L221.74 209 221.74 197" id="h3224382675" class="r"></path><path d="M 333 389 m -1, 0 a 1,1 0 1,0 2,0 a 1,1 0 1,0 -2,0 M 333 389 m -0.5, 0 a 0.5,0.5 0 1,0 1,0 a 0.5,0.5 0 1,0 -1,0  M333 389 L333 389 321 389 M327 395 L327 395 327 383 M321 389 Q 297.69 389, 274.37 296 T 227.74 203 M 215.74 203 m -1, 0 a 1,1 0 1,0 2,0 a 1,1 0 1,0 -2,0 M 215.74 203 m -0.5, 0 a 0.5,0.5 0 1,0 1,0 a 0.5,0.5 0 1,0 -1,0  M215.74 203 L215.74 203 227.74 203 M221.74 209 L221.74 209 221.74 197" id="h495142901" class="r"></path><path d="M 341 126 m -1, 0 a 1,1 0 1,0 2,0 a 1,1 0 1,0 -2,0 M 341 126 m -0.5, 0 a 0.5,0.5 0 1,0 1,0 a 0.5,0.5 0 1,0 -1,0  M341 126 L341 126 329 126 M335 132 L335 132 335 120 M329 126 Q 303.69 126, 278.37 164.5 T 227.74 203 M 215.74 203 m -1, 0 a 1,1 0 1,0 2,0 a 1,1 0 1,0 -2,0 M 215.74 203 m -0.5, 0 a 0.5,0.5 0 1,0 1,0 a 0.5,0.5 0 1,0 -1,0  M215.74 203 L215.74 203 227.74 203 M221.74 209 L221.74 209 221.74 197" id="h3965333687" class="r"></path></g><g class="hrs"></g><g class="ts"><svg width="184.73" height="250" x="333" y="282" id="h3312023188" class="t"><rect height="40" width="184.73" class="th"></rect><text x="13" y="25" class="tht">museums_fy2015</text><rect height="210" width="184.73" class="t-bg"></rect><text x="13" y="61" class="tf pk">FY2015ID<tspan x="171.73" class="ty">int</tspan></text><path d="M7,14A2,2 0 0,1 5,12A2,2 0 0,1 7,10A2,2 0 0,1 9,12A2,2 0 0,1 7,14M12.65,10C11.83,7.67 9.61,6 7, 6A6, 6 0 0, 0 1, 12A6, 6 0 0, 0 7, 18C9.61, 18 11.83, 16.33 12.65, 14H17V18H21V14H23V10H12.65Z" class="i pk" transform="translate(139.056171875, 48) scale(0.65)"></path><text x="13" y="86" class="tf">Common_name<tspan x="171.73" class="ty">varchar?</tspan></text><text x="13" y="111" class="tf fk">Legal_name<tspan x="171.73" class="ty">varchar</tspan></text><text x="13" y="136" class="tf">Phone<tspan x="171.73" class="ty">int?</tspan></text><text x="13" y="161" class="tf">Weburl<tspan x="171.73" class="ty">varchar?</tspan></text><text x="13" y="186" class="tf">Revenue<tspan x="171.73" class="ty">money?</tspan></text><text x="13" y="211" class="tf">Long<tspan x="171.73" class="ty">float?</tspan></text><text x="13" y="236" class="tf">Lat<tspan x="171.73" class="ty">float?</tspan></text></svg><svg width="182.07" height="175" x="341" y="19" id="h982289467" class="t"><rect height="40" width="182.07" class="th"></rect><text x="13" y="25" class="tht">museums_fy2013</text><rect height="135" width="182.07" class="t-bg"></rect><text x="13" y="61" class="tf pk">FY2013ID<tspan x="169.07" class="ty">int</tspan></text><path d="M7,14A2,2 0 0,1 5,12A2,2 0 0,1 7,10A2,2 0 0,1 9,12A2,2 0 0,1 7,14M12.65,10C11.83,7.67 9.61,6 7, 6A6, 6 0 0, 0 1, 12A6, 6 0 0, 0 7, 18C9.61, 18 11.83, 16.33 12.65, 14H17V18H21V14H23V10H12.65Z" class="i pk" transform="translate(136.396171875, 48) scale(0.65)"></path><text x="13" y="86" class="tf">Museum_name<tspan x="169.07" class="ty">varchar?</tspan></text><text x="13" y="111" class="tf fk">Legal_name<tspan x="169.07" class="ty">varchar</tspan></text><text x="13" y="136" class="tf">Revenue<tspan x="169.07" class="ty">money?</tspan></text><text x="13" y="161" class="tf">Region_code<tspan x="169.07" class="ty">int?</tspan></text></svg><svg width="180.74" height="400" x="35" y="121" id="h3906558238" class="t"><rect height="40" width="180.74" class="th"></rect><text x="13" y="25" class="tht">museums_directory</text><rect height="360" width="180.74" class="t-bg"></rect><text x="13" y="61" class="tf pk">DirectoryID<tspan x="167.74" class="ty">int</tspan></text><path d="M7,14A2,2 0 0,1 5,12A2,2 0 0,1 7,10A2,2 0 0,1 9,12A2,2 0 0,1 7,14M12.65,10C11.83,7.67 9.61,6 7, 6A6, 6 0 0, 0 1, 12A6, 6 0 0, 0 7, 18C9.61, 18 11.83, 16.33 12.65, 14H17V18H21V14H23V10H12.65Z" class="i pk" transform="translate(135.066171875, 48) scale(0.65)"></path><text x="13" y="86" class="tf fk">Legal_name<tspan x="167.74" class="ty">varchar</tspan></text><path d="M22,18V22H18V19H15V16H12L9.74,13.74C9.19,13.91 8.61,14 8,14A6,6 0 0,1 2,8A6,6 0 0,1 8,2A6,6 0 0,1 14,8C14,8.61 13.91, 9.19 13.74, 9.74L22, 18M7, 5A2, 2 0 0, 0 5, 7A2, 2 0 0, 0 7, 9A2, 2 0 0, 0 9, 7A2, 2 0 0, 0 7, 5Z" class="i uq" transform="translate(111.72632812500001, 75.5) scale(0.5)"></path><text x="13" y="111" class="tf">Museum_type<tspan x="167.74" class="ty">varchar?</tspan></text><text x="13" y="136" class="tf">Street_address<tspan x="167.74" class="ty">varchar?</tspan></text><text x="13" y="161" class="tf">City<tspan x="167.74" class="ty">varchar?</tspan></text><text x="13" y="186" class="tf">State<tspan x="167.74" class="ty">varchar?</tspan></text><text x="13" y="211" class="tf">Zip_code<tspan x="167.74" class="ty">int?</tspan></text><text x="13" y="236" class="tf">Lat<tspan x="167.74" class="ty">float?</tspan></text><text x="13" y="261" class="tf">Long<tspan x="167.74" class="ty">float?</tspan></text><text x="13" y="286" class="tf">Region_code<tspan x="167.74" class="ty">int?</tspan></text><text x="13" y="311" class="tf">Phone<tspan x="167.74" class="ty">int?</tspan></text><text x="13" y="336" class="tf">Weburl<tspan x="167.74" class="ty">varchar?</tspan></text><text x="13" y="361" class="tf">Revenue_2013<tspan x="167.74" class="ty">money?</tspan></text><text x="13" y="386" class="tf">Revenue_2015<tspan x="167.74" class="ty">money?</tspan></text></svg><svg width="182.07" height="250" x="591" y="139" id="h1248006854" class="t"><rect height="40" width="182.07" class="th"></rect><text x="13" y="25" class="tht">museums_location</text><rect height="210" width="182.07" class="t-bg"></rect><text x="13" y="61" class="tf pk">LocationID<tspan x="169.07" class="ty">int</tspan></text><path d="M7,14A2,2 0 0,1 5,12A2,2 0 0,1 7,10A2,2 0 0,1 9,12A2,2 0 0,1 7,14M12.65,10C11.83,7.67 9.61,6 7, 6A6, 6 0 0, 0 1, 12A6, 6 0 0, 0 7, 18C9.61, 18 11.83, 16.33 12.65, 14H17V18H21V14H23V10H12.65Z" class="i pk" transform="translate(136.396171875, 48) scale(0.65)"></path><text x="13" y="86" class="tf">Museum_name<tspan x="169.07" class="ty">varchar?</tspan></text><text x="13" y="111" class="tf fk">Legal_name<tspan x="169.07" class="ty">varchar</tspan></text><text x="13" y="136" class="tf">Museum_type<tspan x="169.07" class="ty">varchar?</tspan></text><text x="13" y="161" class="tf">Street_address<tspan x="169.07" class="ty">varchar?</tspan></text><text x="13" y="186" class="tf">City<tspan x="169.07" class="ty">varchar?</tspan></text><text x="13" y="211" class="tf">State<tspan x="169.07" class="ty">varchar?</tspan></text><text x="13" y="236" class="tf">Zip_code<tspan x="169.07" class="ty">int?</tspan></text></svg></g></g><text class="qdbd-link" x="10" y="20">www.quickdatabasediagrams.com</text></svg>