<svg class="diagram-root" style="background: #f5f6f6" xmlns="http://www.w3.org/2000/svg" xmlns:xlink="http://www.w3.org/1999/xlink"><style>.diagram-root { font-family: "Helvetica Neue", sans-serif; font-size: 12px; } .t { overflow: visible; } .t-bg { y: 40; fill: #fff;   } .th { fill: #005aa0;   } .tht { fill: #fff; font-size: 14px;  } .tf { fill: #323c46; overflow: visible; } .tf.pk { fill: #005aa0; font-weight: bold; } .tf.fk { font-weight: bold; } .ty { fill: #adb1b5; font-weight: normal; text-anchor: end; } .r { fill: transparent; stroke: #c3c3c3; stroke-width: 1; } .l { stroke: 1; } .i { fill: #c2c7ce; stroke: #c2c7ce; } .i.ix { fill: #afb3b6; stroke: #000; } .fa { fill: transparent; overflow: visible; } .fa .bg.hover { fill: #f7f7f7; } .c { cy: 12; r: 4; stroke: #d2d2dc; fill: #d2d2dc; } .hr { fill: transparent; stroke: #323c46; stroke-opacity: 0.035; stroke-width: 13; } .dc { stroke: #fa5a3c; fill: #fa5a3c; } .x { stroke: white; stroke-width: 1; } .hl .th { fill: #1b9bff; } .hl .tht {  } .fhl .bg { fill: #e7f4ff; } .fhls .bg {  } .r.hl { stroke: #1b9bff; } .dim { opacity: 0.25; }</style><g class="drawing-wrapper" transform="translate(-63, 20) scale(1,1)"><g class="rs"></g><g class="hrs"></g><g class="ts"><svg width="161.39" height="250" x="85" y="105" id="h1248006854" class="t"><rect height="40" width="161.39" class="th"></rect><text x="13" y="25" class="tht">museums_location</text><rect height="210" width="161.39" class="t-bg"></rect><text x="13" y="61" class="tf pk">index<tspan x="148.39" class="ty">int</tspan></text><path d="M7,14A2,2 0 0,1 5,12A2,2 0 0,1 7,10A2,2 0 0,1 9,12A2,2 0 0,1 7,14M12.65,10C11.83,7.67 9.61,6 7, 6A6, 6 0 0, 0 1, 12A6, 6 0 0, 0 7, 18C9.61, 18 11.83, 16.33 12.65, 14H17V18H21V14H23V10H12.65Z" class="i pk" transform="translate(115.71617187499999, 48) scale(0.65)"></path><text x="13" y="86" class="tf">museum_name<tspan x="148.39" class="ty">text?</tspan></text><text x="13" y="111" class="tf">legal_name<tspan x="148.39" class="ty">text?</tspan></text><text x="13" y="136" class="tf">museum_type<tspan x="148.39" class="ty">text?</tspan></text><text x="13" y="161" class="tf">street_address<tspan x="148.39" class="ty">text?</tspan></text><text x="13" y="186" class="tf">city<tspan x="148.39" class="ty">text?</tspan></text><text x="13" y="211" class="tf">state<tspan x="148.39" class="ty">text?</tspan></text><text x="13" y="236" class="tf">zip_code<tspan x="148.39" class="ty">text?</tspan></text></svg><svg width="172.1" height="250" x="377" y="257" id="h3312023188" class="t"><rect height="40" width="172.1" class="th"></rect><text x="13" y="25" class="tht">museums_fy2015</text><rect height="210" width="172.1" class="t-bg"></rect><text x="13" y="61" class="tf pk">index<tspan x="159.1" class="ty">int</tspan></text><path d="M7,14A2,2 0 0,1 5,12A2,2 0 0,1 7,10A2,2 0 0,1 9,12A2,2 0 0,1 7,14M12.65,10C11.83,7.67 9.61,6 7, 6A6, 6 0 0, 0 1, 12A6, 6 0 0, 0 7, 18C9.61, 18 11.83, 16.33 12.65, 14H17V18H21V14H23V10H12.65Z" class="i pk" transform="translate(126.426171875, 48) scale(0.65)"></path><text x="13" y="86" class="tf">common_name<tspan x="159.1" class="ty">text?</tspan></text><text x="13" y="111" class="tf">legal_name<tspan x="159.1" class="ty">text?</tspan></text><text x="13" y="136" class="tf">phone<tspan x="159.1" class="ty">text?</tspan></text><text x="13" y="161" class="tf">weburl<tspan x="159.1" class="ty">text?</tspan></text><text x="13" y="186" class="tf">revenue_2015<tspan x="159.1" class="ty">money?</tspan></text><text x="13" y="211" class="tf">long<tspan x="159.1" class="ty">float?</tspan></text><text x="13" y="236" class="tf">lat<tspan x="159.1" class="ty">float?</tspan></text></svg><svg width="172.1" height="175" x="393" y="10" id="h982289467" class="t"><rect height="40" width="172.1" class="th"></rect><text x="13" y="25" class="tht">museums_fy2013</text><rect height="135" width="172.1" class="t-bg"></rect><text x="13" y="61" class="tf pk">index<tspan x="159.1" class="ty">int</tspan></text><path d="M7,14A2,2 0 0,1 5,12A2,2 0 0,1 7,10A2,2 0 0,1 9,12A2,2 0 0,1 7,14M12.65,10C11.83,7.67 9.61,6 7, 6A6, 6 0 0, 0 1, 12A6, 6 0 0, 0 7, 18C9.61, 18 11.83, 16.33 12.65, 14H17V18H21V14H23V10H12.65Z" class="i pk" transform="translate(126.426171875, 48) scale(0.65)"></path><text x="13" y="86" class="tf">museum_name<tspan x="159.1" class="ty">text?</tspan></text><text x="13" y="111" class="tf">legal_name<tspan x="159.1" class="ty">text?</tspan></text><text x="13" y="136" class="tf">revenue_2013<tspan x="159.1" class="ty">money?</tspan></text><text x="13" y="161" class="tf">region_code<tspan x="159.1" class="ty">int?</tspan></text></svg></g></g><text class="qdbd-link" x="10" y="20">www.quickdatabasediagrams.com</text></svg>